#!OML:ASF E:\Steps\Project 1\Capture day 1\Session 2\Subject.ASF
:FULLY-SPECIFIED
:DEGREES
310
root -1.1868 17.7861 19.9529 -157.38 -3.63704 180.952
lowerback -24.4287 -2.14066 -7.46207
upperback 0.136051 -0.972768 0.0704269
thorax 14.0644 -1.09042 3.99319
lowerneck 3.65373 -0.376366 -1.48747
upperneck 10.6924 -1.99188 7.17706
head 2.90654 -1.20754 2.56892
rclavicle -1.39149e-015 -1.90833e-014
rhumerus -37.8461 -14.0015 -77.7089
rradius 37.0155
rwrist -4.07033
rhand -9.1219 -53.3159
rfingers 7.12502
rthumb 16.8291 -82.6066
lclavicle -1.39149e-015 -1.90833e-014
lhumerus -32.8155 6.13036 75.7503
lradius 21.6468
lwrist -5.24589
lhand -22.197 -11.8552
lfingers 7.12502
lthumb 4.2185 18.0828
rfemur -49.8773 -1.86628 21.9846
rtibia 48.976
rfoot -25.8254 -9.64972
rtoes -31.927
lfemur -23.1154 -13.6789 -19.2836
ltibia 20.837
lfoot -16.3278 -2.42746
ltoes -5.04802
311
root -1.18082 17.7815 19.9086 -157.731 -3.85207 180.958
lowerback -24.2585 -2.24023 -7.54367
upperback 0.210201 -1.08748 0.11434
thorax 14.0754 -1.1478 4.05083
lowerneck 4.31246 -0.392956 -1.46427
upperneck 10.0694 -1.94949 7.19528
head 2.57421 -1.20032 2.56499
rclavicle 1.78906e-015 -1.19271e-014
rhumerus -37.9336 -14.06 -77.5573
rradius 36.7301
rwrist -3.62988
rhand -9.36917 -53.1201
rfingers 7.12502
rthumb 16.591 -82.4309
lclavicle 1.78906e-015 -1.19271e-014
lhumerus -33.0143 5.8705 75.7824
lradius 21.8945
lwrist -4.73436
lhand -22.5329 -12.0619
lfingers 7.12502
lthumb 3.89417 17.8823
rfemur -50.1606 -1.78728 21.4464
rtibia 48.4667
rfoot -25.4606 -9.68788
rtoes -29.9343
lfemur -22.5759 -13.7929 -19.3495
ltibia 20.9101
lfoot -16.4392 -2.55281
ltoes -4.30876
312
root -1.17266 17.7878 19.8519 -158.731 -4.47454 180.696
lowerback -23.5484 -2.53576 -7.96228
upperback 0.518497 -1.3781 0.166324
thorax 14.0956 -1.3046 4.25361
lowerneck 4.19378 -0.459459 -1.4945
upperneck 10.2997 -2.0753 7.20621
head 2.68045 -1.26447 2.57515
rclavicle 2.16675e-014 0
rhumerus -38.0369 -13.9843 -77.4348
rradius 36.5518
rwrist -3.52759
rhand -9.33788 -53.4611
rfingers 7.12502
rthumb 16.6212 -82.7694
lclavicle 2.16675e-014 0
lhumerus -33.1169 5.91135 75.7499
lradius 22.1009
lwrist -4.51359
lhand -22.3236 -12.3973
lfingers 7.12502
lthumb 4.09633 17.5431
rfemur -49.2621 -2.1995 20.6002
rtibia 47.1916
rfoot -25.0594 -10.0019
rtoes -28.1608
lfemur -21.23 -14.2258 -19.7741
ltibia 20.9554
lfoot -16.6298 -2.90233
ltoes -3.59735
313
root -1.1683 17.7806 19.8155 -158.945 -4.59199 180.806
lowerback -23.5198 -2.57301 -7.93774
upperback 0.592641 -1.43396 0.235732
thorax 14.1776 -1.33275 4.30012
lowerneck 3.32381 -0.666041 -1.5581
upperneck 11.3596 -2.52513 7.41752
head 3.23223 -1.4773 2.66301
rclavicle -7.95139e-016 -2.38542e-014
rhumerus -38.3036 -14.023 -77.2812
rradius 36.6572
rwrist -3.73621
rhand -9.11682 -53.8714
rfingers 7.12502
rthumb 16.834 -83.1617
lclavicle -7.95139e-016 -2.38542e-014
lhumerus -33.1337 6.05373 75.7006
lradius 22.2725
lwrist -4.62627
lhand -22.0374 -12.4326
lfingers 7.12502
lthumb 4.37261 17.5022
rfemur -49.7015 -2.1415 20.1223
rtibia 46.3422
rfoot -24.4386 -10.3211
rtoes -28.5355
lfemur -21.0115 -14.3703 -19.6795
ltibia 21.3367
lfoot -16.9227 -3.03814
ltoes -2.06567
314
root -1.16025 17.7721 19.7738 -159.177 -4.78016 180.97
lowerback -23.4922 -2.61412 -7.86475
upperback 0.67298 -1.50655 0.294649
thorax 14.2681 -1.36466 4.30061
lowerneck 3.74851 -0.552224 -1.4551
upperneck 10.6605 -2.24541 7.24607
head 2.89283 -1.33733 2.58271
rclavicle -3.97569e-016 2.78299e-014
rhumerus -38.464 -14.2756 -77.1282
rradius 36.5669
rwrist -3.71685
rhand -9.05942 -54.1197
rfingers 7.12502
rthumb 16.8892 -83.4053
lclavicle -3.97569e-016 2.78299e-014
lhumerus -33.1539 5.94509 75.6826
lradius 22.4714
lwrist -4.61066
lhand -22.1345 -12.1603
lfingers 7.12502
lthumb 4.27893 17.7765
rfemur -50.1404 -1.95287 19.6259
rtibia 45.6374
rfoot -24.0806 -10.4132
rtoes -28.1965
lfemur -20.6924 -14.5414 -19.5084
ltibia 21.5375
lfoot -16.9854 -3.17511
ltoes -0.477657
